<mxfile host="app.diagrams.net" modified="2023-11-10T11:02:42.861Z" agent="Mozilla/5.0 (Windows NT 10.0; Win64; x64) AppleWebKit/537.36 (KHTML, like Gecko) Chrome/119.0.0.0 Safari/537.36" etag="jPElAzOUtFl9-W3hgmbB" version="22.1.0" type="device">
  <diagram name="1 oldal" id="6BQPnAVfDDiGFSh3jVAw">
    <mxGraphModel dx="2062" dy="1844" grid="1" gridSize="10" guides="1" tooltips="1" connect="1" arrows="1" fold="1" page="1" pageScale="1" pageWidth="827" pageHeight="1169" math="0" shadow="0">
      <root>
        <mxCell id="0" />
        <mxCell id="1" parent="0" />
        <mxCell id="cEuxnRAqp1WZ91AmgwLH-115" style="edgeStyle=orthogonalEdgeStyle;rounded=0;orthogonalLoop=1;jettySize=auto;html=1;exitX=0.5;exitY=1;exitDx=0;exitDy=0;entryX=0.5;entryY=0;entryDx=0;entryDy=0;endArrow=none;endFill=0;" parent="1" source="cEuxnRAqp1WZ91AmgwLH-1" target="cEuxnRAqp1WZ91AmgwLH-2" edge="1">
          <mxGeometry relative="1" as="geometry" />
        </mxCell>
        <mxCell id="cEuxnRAqp1WZ91AmgwLH-1" value="&lt;u&gt;Bálint ház&lt;/u&gt;" style="whiteSpace=wrap;html=1;align=center;" parent="1" vertex="1">
          <mxGeometry x="270" y="-120" width="100" height="60" as="geometry" />
        </mxCell>
        <mxCell id="cEuxnRAqp1WZ91AmgwLH-120" style="edgeStyle=orthogonalEdgeStyle;rounded=0;orthogonalLoop=1;jettySize=auto;html=1;exitX=1;exitY=0.5;exitDx=0;exitDy=0;entryX=0;entryY=0.5;entryDx=0;entryDy=0;endArrow=classic;endFill=1;" parent="1" source="cEuxnRAqp1WZ91AmgwLH-2" target="cEuxnRAqp1WZ91AmgwLH-49" edge="1">
          <mxGeometry relative="1" as="geometry" />
        </mxCell>
        <mxCell id="cEuxnRAqp1WZ91AmgwLH-2" value="&lt;u&gt;győrzámolyi buszmegálló&lt;/u&gt;" style="whiteSpace=wrap;html=1;align=center;" parent="1" vertex="1">
          <mxGeometry x="250" y="10" width="100" height="40" as="geometry" />
        </mxCell>
        <mxCell id="cEuxnRAqp1WZ91AmgwLH-4" value="Eurós bolt" style="whiteSpace=wrap;html=1;align=center;" parent="1" vertex="1">
          <mxGeometry x="414" y="300" width="100" height="40" as="geometry" />
        </mxCell>
        <mxCell id="cEuxnRAqp1WZ91AmgwLH-132" style="edgeStyle=orthogonalEdgeStyle;rounded=0;orthogonalLoop=1;jettySize=auto;html=1;exitX=0.25;exitY=1;exitDx=0;exitDy=0;entryX=0.5;entryY=0;entryDx=0;entryDy=0;" parent="1" source="cEuxnRAqp1WZ91AmgwLH-6" target="cEuxnRAqp1WZ91AmgwLH-21" edge="1">
          <mxGeometry relative="1" as="geometry">
            <Array as="points">
              <mxPoint x="580" y="270" />
              <mxPoint x="580" y="290" />
              <mxPoint x="644" y="290" />
            </Array>
          </mxGeometry>
        </mxCell>
        <mxCell id="cEuxnRAqp1WZ91AmgwLH-133" style="edgeStyle=orthogonalEdgeStyle;rounded=0;orthogonalLoop=1;jettySize=auto;html=1;exitX=0.5;exitY=1;exitDx=0;exitDy=0;entryX=0.5;entryY=0;entryDx=0;entryDy=0;" parent="1" source="cEuxnRAqp1WZ91AmgwLH-6" target="cEuxnRAqp1WZ91AmgwLH-26" edge="1">
          <mxGeometry relative="1" as="geometry" />
        </mxCell>
        <mxCell id="PrAY7Zvrhfou519XJotz-38" style="edgeStyle=orthogonalEdgeStyle;rounded=0;orthogonalLoop=1;jettySize=auto;html=1;exitX=0.5;exitY=1;exitDx=0;exitDy=0;entryX=0.5;entryY=0;entryDx=0;entryDy=0;" parent="1" source="cEuxnRAqp1WZ91AmgwLH-6" target="cEuxnRAqp1WZ91AmgwLH-28" edge="1">
          <mxGeometry relative="1" as="geometry" />
        </mxCell>
        <mxCell id="PrAY7Zvrhfou519XJotz-39" style="edgeStyle=orthogonalEdgeStyle;rounded=0;orthogonalLoop=1;jettySize=auto;html=1;exitX=0.5;exitY=1;exitDx=0;exitDy=0;entryX=0.5;entryY=0;entryDx=0;entryDy=0;" parent="1" source="cEuxnRAqp1WZ91AmgwLH-6" target="PrAY7Zvrhfou519XJotz-34" edge="1">
          <mxGeometry relative="1" as="geometry">
            <Array as="points">
              <mxPoint x="580" y="290" />
              <mxPoint x="1290" y="290" />
            </Array>
          </mxGeometry>
        </mxCell>
        <mxCell id="cEuxnRAqp1WZ91AmgwLH-6" value="&lt;u&gt;Jedlik iskola&lt;br&gt;bejárat&lt;br&gt;&lt;/u&gt;" style="whiteSpace=wrap;html=1;align=center;" parent="1" vertex="1">
          <mxGeometry x="530" y="230" width="100" height="40" as="geometry" />
        </mxCell>
        <mxCell id="focETTUK9HXFLKn-f_tf-6" style="edgeStyle=orthogonalEdgeStyle;rounded=0;orthogonalLoop=1;jettySize=auto;html=1;exitX=0.5;exitY=0;exitDx=0;exitDy=0;entryX=0.5;entryY=0;entryDx=0;entryDy=0;" parent="1" source="cEuxnRAqp1WZ91AmgwLH-7" target="focETTUK9HXFLKn-f_tf-4" edge="1">
          <mxGeometry relative="1" as="geometry">
            <Array as="points">
              <mxPoint x="-745" y="-390" />
              <mxPoint x="914" y="-390" />
            </Array>
          </mxGeometry>
        </mxCell>
        <mxCell id="cEuxnRAqp1WZ91AmgwLH-7" value="Véralkoholszint = 0" style="ellipse;whiteSpace=wrap;html=1;align=center;" parent="1" vertex="1">
          <mxGeometry x="-800" y="70" width="110" height="40" as="geometry" />
        </mxCell>
        <mxCell id="cEuxnRAqp1WZ91AmgwLH-9" value="életkedv = 70" style="ellipse;whiteSpace=wrap;html=1;align=center;" parent="1" vertex="1">
          <mxGeometry x="-800" y="140" width="100" height="40" as="geometry" />
        </mxCell>
        <mxCell id="cEuxnRAqp1WZ91AmgwLH-10" value="Idegállapot = 0" style="ellipse;whiteSpace=wrap;html=1;align=center;" parent="1" vertex="1">
          <mxGeometry x="-800" y="210" width="100" height="40" as="geometry" />
        </mxCell>
        <mxCell id="cEuxnRAqp1WZ91AmgwLH-119" style="edgeStyle=orthogonalEdgeStyle;rounded=0;orthogonalLoop=1;jettySize=auto;html=1;exitX=0.5;exitY=1;exitDx=0;exitDy=0;entryX=1;entryY=0.5;entryDx=0;entryDy=0;endArrow=none;endFill=0;" parent="1" source="cEuxnRAqp1WZ91AmgwLH-15" target="cEuxnRAqp1WZ91AmgwLH-106" edge="1">
          <mxGeometry relative="1" as="geometry" />
        </mxCell>
        <mxCell id="cEuxnRAqp1WZ91AmgwLH-15" value="Töltés" style="whiteSpace=wrap;html=1;align=center;" parent="1" vertex="1">
          <mxGeometry x="440" y="90" width="100" height="40" as="geometry" />
        </mxCell>
        <mxCell id="cEuxnRAqp1WZ91AmgwLH-16" value="Kondi" style="whiteSpace=wrap;html=1;align=center;" parent="1" vertex="1">
          <mxGeometry x="90" y="270" width="100" height="40" as="geometry" />
        </mxCell>
        <mxCell id="PrAY7Zvrhfou519XJotz-32" style="edgeStyle=orthogonalEdgeStyle;rounded=0;orthogonalLoop=1;jettySize=auto;html=1;exitX=0.5;exitY=1;exitDx=0;exitDy=0;entryX=0.5;entryY=0;entryDx=0;entryDy=0;" parent="1" source="cEuxnRAqp1WZ91AmgwLH-18" target="PrAY7Zvrhfou519XJotz-31" edge="1">
          <mxGeometry relative="1" as="geometry" />
        </mxCell>
        <mxCell id="cEuxnRAqp1WZ91AmgwLH-18" value="Büfé" style="whiteSpace=wrap;html=1;align=center;" parent="1" vertex="1">
          <mxGeometry x="524" y="480" width="100" height="40" as="geometry" />
        </mxCell>
        <mxCell id="PrAY7Zvrhfou519XJotz-27" style="edgeStyle=orthogonalEdgeStyle;rounded=0;orthogonalLoop=1;jettySize=auto;html=1;exitX=0;exitY=1;exitDx=0;exitDy=0;entryX=0.5;entryY=0;entryDx=0;entryDy=0;" parent="1" source="cEuxnRAqp1WZ91AmgwLH-20" target="cEuxnRAqp1WZ91AmgwLH-44" edge="1">
          <mxGeometry relative="1" as="geometry">
            <Array as="points">
              <mxPoint x="834" y="520" />
            </Array>
          </mxGeometry>
        </mxCell>
        <mxCell id="PrAY7Zvrhfou519XJotz-28" style="edgeStyle=orthogonalEdgeStyle;rounded=0;orthogonalLoop=1;jettySize=auto;html=1;exitX=0.75;exitY=1;exitDx=0;exitDy=0;entryX=0.25;entryY=0;entryDx=0;entryDy=0;" parent="1" source="cEuxnRAqp1WZ91AmgwLH-20" target="cEuxnRAqp1WZ91AmgwLH-24" edge="1">
          <mxGeometry relative="1" as="geometry" />
        </mxCell>
        <mxCell id="cEuxnRAqp1WZ91AmgwLH-20" value="&lt;u&gt;B épület átjáró&lt;/u&gt;" style="whiteSpace=wrap;html=1;align=center;" parent="1" vertex="1">
          <mxGeometry x="864" y="480" width="100" height="40" as="geometry" />
        </mxCell>
        <mxCell id="PrAY7Zvrhfou519XJotz-17" style="edgeStyle=orthogonalEdgeStyle;rounded=0;orthogonalLoop=1;jettySize=auto;html=1;exitX=1;exitY=1;exitDx=0;exitDy=0;entryX=0;entryY=0.5;entryDx=0;entryDy=0;" parent="1" source="cEuxnRAqp1WZ91AmgwLH-21" target="PrAY7Zvrhfou519XJotz-16" edge="1">
          <mxGeometry relative="1" as="geometry" />
        </mxCell>
        <mxCell id="cEuxnRAqp1WZ91AmgwLH-21" value="&lt;u&gt;Fazakas terem&lt;/u&gt;" style="whiteSpace=wrap;html=1;align=center;" parent="1" vertex="1">
          <mxGeometry x="594" y="310" width="100" height="40" as="geometry" />
        </mxCell>
        <mxCell id="cEuxnRAqp1WZ91AmgwLH-22" value="Jedlik wéce" style="whiteSpace=wrap;html=1;align=center;" parent="1" vertex="1">
          <mxGeometry x="684" y="480" width="100" height="40" as="geometry" />
        </mxCell>
        <mxCell id="focETTUK9HXFLKn-f_tf-10" style="edgeStyle=orthogonalEdgeStyle;rounded=0;orthogonalLoop=1;jettySize=auto;html=1;exitX=1;exitY=0;exitDx=0;exitDy=0;entryX=0;entryY=0.5;entryDx=0;entryDy=0;" parent="1" source="cEuxnRAqp1WZ91AmgwLH-23" target="cEuxnRAqp1WZ91AmgwLH-6" edge="1">
          <mxGeometry relative="1" as="geometry" />
        </mxCell>
        <mxCell id="focETTUK9HXFLKn-f_tf-11" style="edgeStyle=orthogonalEdgeStyle;rounded=0;orthogonalLoop=1;jettySize=auto;html=1;exitX=0.75;exitY=1;exitDx=0;exitDy=0;entryX=0;entryY=0.5;entryDx=0;entryDy=0;" parent="1" source="cEuxnRAqp1WZ91AmgwLH-23" target="cEuxnRAqp1WZ91AmgwLH-4" edge="1">
          <mxGeometry relative="1" as="geometry" />
        </mxCell>
        <mxCell id="cEuxnRAqp1WZ91AmgwLH-23" value="&lt;u&gt;Vasútállomás aluljáró&lt;/u&gt;" style="whiteSpace=wrap;html=1;align=center;" parent="1" vertex="1">
          <mxGeometry x="270" y="250" width="100" height="40" as="geometry" />
        </mxCell>
        <mxCell id="PrAY7Zvrhfou519XJotz-40" style="edgeStyle=orthogonalEdgeStyle;rounded=0;orthogonalLoop=1;jettySize=auto;html=1;exitX=1;exitY=0.5;exitDx=0;exitDy=0;entryX=0.5;entryY=0;entryDx=0;entryDy=0;" parent="1" source="cEuxnRAqp1WZ91AmgwLH-24" target="PrAY7Zvrhfou519XJotz-34" edge="1">
          <mxGeometry relative="1" as="geometry" />
        </mxCell>
        <mxCell id="cEuxnRAqp1WZ91AmgwLH-24" value="Szűcs Gábor terem" style="whiteSpace=wrap;html=1;align=center;" parent="1" vertex="1">
          <mxGeometry x="914" y="570" width="100" height="40" as="geometry" />
        </mxCell>
        <mxCell id="PrAY7Zvrhfou519XJotz-41" style="edgeStyle=orthogonalEdgeStyle;rounded=0;orthogonalLoop=1;jettySize=auto;html=1;exitX=1;exitY=0.5;exitDx=0;exitDy=0;entryX=0.5;entryY=0;entryDx=0;entryDy=0;" parent="1" source="cEuxnRAqp1WZ91AmgwLH-25" target="PrAY7Zvrhfou519XJotz-34" edge="1">
          <mxGeometry relative="1" as="geometry">
            <Array as="points">
              <mxPoint x="884" y="680" />
              <mxPoint x="1290" y="680" />
            </Array>
          </mxGeometry>
        </mxCell>
        <mxCell id="cEuxnRAqp1WZ91AmgwLH-25" value="Németh Ádám terem" style="whiteSpace=wrap;html=1;align=center;" parent="1" vertex="1">
          <mxGeometry x="784" y="665" width="100" height="40" as="geometry" />
        </mxCell>
        <mxCell id="PrAY7Zvrhfou519XJotz-18" style="edgeStyle=orthogonalEdgeStyle;rounded=0;orthogonalLoop=1;jettySize=auto;html=1;exitX=0.5;exitY=1;exitDx=0;exitDy=0;entryX=0.5;entryY=0;entryDx=0;entryDy=0;" parent="1" source="cEuxnRAqp1WZ91AmgwLH-26" target="PrAY7Zvrhfou519XJotz-16" edge="1">
          <mxGeometry relative="1" as="geometry" />
        </mxCell>
        <mxCell id="cEuxnRAqp1WZ91AmgwLH-26" value="&lt;u&gt;Vincze Flórián terem&lt;/u&gt;" style="whiteSpace=wrap;html=1;align=center;" parent="1" vertex="1">
          <mxGeometry x="884" y="310" width="100" height="40" as="geometry" />
        </mxCell>
        <mxCell id="PrAY7Zvrhfou519XJotz-13" style="edgeStyle=orthogonalEdgeStyle;rounded=0;orthogonalLoop=1;jettySize=auto;html=1;exitX=0.5;exitY=1;exitDx=0;exitDy=0;entryX=0.5;entryY=0;entryDx=0;entryDy=0;startArrow=classic;startFill=1;" parent="1" source="cEuxnRAqp1WZ91AmgwLH-28" target="cEuxnRAqp1WZ91AmgwLH-46" edge="1">
          <mxGeometry relative="1" as="geometry">
            <Array as="points">
              <mxPoint x="1174" y="370" />
              <mxPoint x="1184" y="370" />
            </Array>
          </mxGeometry>
        </mxCell>
        <mxCell id="PrAY7Zvrhfou519XJotz-19" style="edgeStyle=orthogonalEdgeStyle;rounded=0;orthogonalLoop=1;jettySize=auto;html=1;exitX=0;exitY=1;exitDx=0;exitDy=0;entryX=1;entryY=0.5;entryDx=0;entryDy=0;" parent="1" source="cEuxnRAqp1WZ91AmgwLH-28" target="PrAY7Zvrhfou519XJotz-16" edge="1">
          <mxGeometry relative="1" as="geometry" />
        </mxCell>
        <mxCell id="cEuxnRAqp1WZ91AmgwLH-28" value="&lt;u&gt;C# terem&lt;/u&gt;" style="whiteSpace=wrap;html=1;align=center;" parent="1" vertex="1">
          <mxGeometry x="1124" y="310" width="100" height="40" as="geometry" />
        </mxCell>
        <mxCell id="cEuxnRAqp1WZ91AmgwLH-110" style="edgeStyle=orthogonalEdgeStyle;rounded=0;orthogonalLoop=1;jettySize=auto;html=1;exitX=1;exitY=0.5;exitDx=0;exitDy=0;entryX=0;entryY=0.5;entryDx=0;entryDy=0;endArrow=none;endFill=0;" parent="1" source="cEuxnRAqp1WZ91AmgwLH-30" target="cEuxnRAqp1WZ91AmgwLH-1" edge="1">
          <mxGeometry relative="1" as="geometry" />
        </mxCell>
        <mxCell id="cEuxnRAqp1WZ91AmgwLH-123" style="edgeStyle=orthogonalEdgeStyle;rounded=0;orthogonalLoop=1;jettySize=auto;html=1;exitX=0;exitY=0.5;exitDx=0;exitDy=0;endArrow=none;endFill=0;" parent="1" source="cEuxnRAqp1WZ91AmgwLH-30" target="cEuxnRAqp1WZ91AmgwLH-34" edge="1">
          <mxGeometry relative="1" as="geometry" />
        </mxCell>
        <mxCell id="cEuxnRAqp1WZ91AmgwLH-125" style="edgeStyle=orthogonalEdgeStyle;rounded=0;orthogonalLoop=1;jettySize=auto;html=1;exitX=0.25;exitY=1;exitDx=0;exitDy=0;entryX=1;entryY=0.75;entryDx=0;entryDy=0;endArrow=none;endFill=0;" parent="1" source="cEuxnRAqp1WZ91AmgwLH-30" target="cEuxnRAqp1WZ91AmgwLH-35" edge="1">
          <mxGeometry relative="1" as="geometry" />
        </mxCell>
        <mxCell id="cEuxnRAqp1WZ91AmgwLH-128" style="edgeStyle=orthogonalEdgeStyle;rounded=0;orthogonalLoop=1;jettySize=auto;html=1;exitX=1;exitY=1;exitDx=0;exitDy=0;entryX=0;entryY=0;entryDx=0;entryDy=0;" parent="1" source="cEuxnRAqp1WZ91AmgwLH-30" target="cEuxnRAqp1WZ91AmgwLH-2" edge="1">
          <mxGeometry relative="1" as="geometry" />
        </mxCell>
        <mxCell id="cEuxnRAqp1WZ91AmgwLH-136" style="edgeStyle=orthogonalEdgeStyle;rounded=0;orthogonalLoop=1;jettySize=auto;html=1;exitX=0.75;exitY=1;exitDx=0;exitDy=0;entryX=0.5;entryY=0;entryDx=0;entryDy=0;endArrow=none;endFill=0;" parent="1" source="cEuxnRAqp1WZ91AmgwLH-30" target="cEuxnRAqp1WZ91AmgwLH-36" edge="1">
          <mxGeometry relative="1" as="geometry" />
        </mxCell>
        <mxCell id="cEuxnRAqp1WZ91AmgwLH-30" value="Mákvirág kocsma" style="whiteSpace=wrap;html=1;align=center;" parent="1" vertex="1">
          <mxGeometry x="-130" y="-160" width="100" height="40" as="geometry" />
        </mxCell>
        <mxCell id="cEuxnRAqp1WZ91AmgwLH-32" value="Dohi" style="whiteSpace=wrap;html=1;align=center;" parent="1" vertex="1">
          <mxGeometry x="-297" y="270" width="100" height="40" as="geometry" />
        </mxCell>
        <mxCell id="cEuxnRAqp1WZ91AmgwLH-33" value="Lucifer XXX shop" style="whiteSpace=wrap;html=1;align=center;" parent="1" vertex="1">
          <mxGeometry x="-560" y="270" width="100" height="40" as="geometry" />
        </mxCell>
        <mxCell id="cEuxnRAqp1WZ91AmgwLH-34" value="Virágágyás" style="whiteSpace=wrap;html=1;align=center;" parent="1" vertex="1">
          <mxGeometry x="-300" y="-60" width="100" height="40" as="geometry" />
        </mxCell>
        <mxCell id="cEuxnRAqp1WZ91AmgwLH-35" value="WC" style="whiteSpace=wrap;html=1;align=center;" parent="1" vertex="1">
          <mxGeometry x="-320" y="30" width="100" height="40" as="geometry" />
        </mxCell>
        <mxCell id="cEuxnRAqp1WZ91AmgwLH-114" style="edgeStyle=orthogonalEdgeStyle;rounded=0;orthogonalLoop=1;jettySize=auto;html=1;exitX=0.5;exitY=1;exitDx=0;exitDy=0;entryX=0.5;entryY=0;entryDx=0;entryDy=0;endArrow=none;endFill=0;" parent="1" source="cEuxnRAqp1WZ91AmgwLH-36" target="cEuxnRAqp1WZ91AmgwLH-37" edge="1">
          <mxGeometry relative="1" as="geometry" />
        </mxCell>
        <mxCell id="cEuxnRAqp1WZ91AmgwLH-117" style="edgeStyle=orthogonalEdgeStyle;rounded=0;orthogonalLoop=1;jettySize=auto;html=1;exitX=1;exitY=0.5;exitDx=0;exitDy=0;entryX=0;entryY=0.75;entryDx=0;entryDy=0;endArrow=classic;endFill=1;" parent="1" source="cEuxnRAqp1WZ91AmgwLH-36" target="cEuxnRAqp1WZ91AmgwLH-2" edge="1">
          <mxGeometry relative="1" as="geometry" />
        </mxCell>
        <mxCell id="cEuxnRAqp1WZ91AmgwLH-118" style="edgeStyle=orthogonalEdgeStyle;rounded=0;orthogonalLoop=1;jettySize=auto;html=1;exitX=1;exitY=0.75;exitDx=0;exitDy=0;entryX=0;entryY=0.5;entryDx=0;entryDy=0;endArrow=classic;endFill=1;" parent="1" source="cEuxnRAqp1WZ91AmgwLH-36" target="cEuxnRAqp1WZ91AmgwLH-106" edge="1">
          <mxGeometry relative="1" as="geometry" />
        </mxCell>
        <mxCell id="cEuxnRAqp1WZ91AmgwLH-36" value="dunaszeg" style="whiteSpace=wrap;html=1;align=center;" parent="1" vertex="1">
          <mxGeometry x="-90" y="10" width="100" height="40" as="geometry" />
        </mxCell>
        <mxCell id="cEuxnRAqp1WZ91AmgwLH-37" value="Fazakas sufnija" style="whiteSpace=wrap;html=1;align=center;" parent="1" vertex="1">
          <mxGeometry x="-90" y="90" width="100" height="40" as="geometry" />
        </mxCell>
        <mxCell id="cEuxnRAqp1WZ91AmgwLH-39" value="Snüssz" style="shape=note;size=20;whiteSpace=wrap;html=1;" parent="1" vertex="1">
          <mxGeometry x="1334" y="430" width="100" height="100" as="geometry" />
        </mxCell>
        <mxCell id="PrAY7Zvrhfou519XJotz-29" style="edgeStyle=orthogonalEdgeStyle;rounded=0;orthogonalLoop=1;jettySize=auto;html=1;exitX=0.5;exitY=1;exitDx=0;exitDy=0;entryX=0.5;entryY=0;entryDx=0;entryDy=0;" parent="1" source="cEuxnRAqp1WZ91AmgwLH-44" target="cEuxnRAqp1WZ91AmgwLH-25" edge="1">
          <mxGeometry relative="1" as="geometry" />
        </mxCell>
        <mxCell id="PrAY7Zvrhfou519XJotz-30" style="edgeStyle=orthogonalEdgeStyle;rounded=0;orthogonalLoop=1;jettySize=auto;html=1;exitX=1;exitY=0.5;exitDx=0;exitDy=0;entryX=0;entryY=0.5;entryDx=0;entryDy=0;startArrow=classic;startFill=1;" parent="1" source="cEuxnRAqp1WZ91AmgwLH-44" target="cEuxnRAqp1WZ91AmgwLH-24" edge="1">
          <mxGeometry relative="1" as="geometry" />
        </mxCell>
        <mxCell id="cEuxnRAqp1WZ91AmgwLH-44" value="&lt;u&gt;Tesi öltöző&lt;/u&gt;" style="whiteSpace=wrap;html=1;align=center;" parent="1" vertex="1">
          <mxGeometry x="784" y="570" width="100" height="40" as="geometry" />
        </mxCell>
        <mxCell id="cEuxnRAqp1WZ91AmgwLH-46" value="41 padlás" style="whiteSpace=wrap;html=1;align=center;" parent="1" vertex="1">
          <mxGeometry x="1134" y="470" width="100" height="40" as="geometry" />
        </mxCell>
        <mxCell id="cEuxnRAqp1WZ91AmgwLH-121" style="edgeStyle=orthogonalEdgeStyle;rounded=0;orthogonalLoop=1;jettySize=auto;html=1;exitX=0.5;exitY=1;exitDx=0;exitDy=0;entryX=0.5;entryY=0;entryDx=0;entryDy=0;endArrow=classic;endFill=1;" parent="1" source="cEuxnRAqp1WZ91AmgwLH-49" target="cEuxnRAqp1WZ91AmgwLH-15" edge="1">
          <mxGeometry relative="1" as="geometry" />
        </mxCell>
        <mxCell id="PrAY7Zvrhfou519XJotz-1" style="edgeStyle=orthogonalEdgeStyle;rounded=0;orthogonalLoop=1;jettySize=auto;html=1;exitX=0.5;exitY=0;exitDx=0;exitDy=0;entryX=0.5;entryY=0;entryDx=0;entryDy=0;" parent="1" source="cEuxnRAqp1WZ91AmgwLH-49" target="cEuxnRAqp1WZ91AmgwLH-30" edge="1">
          <mxGeometry relative="1" as="geometry" />
        </mxCell>
        <mxCell id="cEuxnRAqp1WZ91AmgwLH-49" value="Nem jön a busz" style="shape=rhombus;perimeter=rhombusPerimeter;whiteSpace=wrap;html=1;align=center;" parent="1" vertex="1">
          <mxGeometry x="430" width="120" height="60" as="geometry" />
        </mxCell>
        <mxCell id="ExdMMLBBIzPGn8FxBneu-1" style="edgeStyle=orthogonalEdgeStyle;rounded=0;orthogonalLoop=1;jettySize=auto;html=1;exitX=0;exitY=0.5;exitDx=0;exitDy=0;entryX=0.25;entryY=1;entryDx=0;entryDy=0;" edge="1" parent="1" source="cEuxnRAqp1WZ91AmgwLH-82" target="cEuxnRAqp1WZ91AmgwLH-23">
          <mxGeometry relative="1" as="geometry" />
        </mxCell>
        <mxCell id="cEuxnRAqp1WZ91AmgwLH-82" value="&lt;u&gt;Jedlik kijárat&lt;/u&gt;" style="whiteSpace=wrap;html=1;align=center;" parent="1" vertex="1">
          <mxGeometry x="560" y="770" width="100" height="40" as="geometry" />
        </mxCell>
        <mxCell id="PrAY7Zvrhfou519XJotz-2" style="edgeStyle=orthogonalEdgeStyle;rounded=0;orthogonalLoop=1;jettySize=auto;html=1;exitX=0;exitY=1;exitDx=0;exitDy=0;entryX=0.25;entryY=0;entryDx=0;entryDy=0;" parent="1" source="cEuxnRAqp1WZ91AmgwLH-106" target="cEuxnRAqp1WZ91AmgwLH-33" edge="1">
          <mxGeometry relative="1" as="geometry">
            <Array as="points">
              <mxPoint x="-535" y="190" />
            </Array>
          </mxGeometry>
        </mxCell>
        <mxCell id="PrAY7Zvrhfou519XJotz-4" style="edgeStyle=orthogonalEdgeStyle;rounded=0;orthogonalLoop=1;jettySize=auto;html=1;exitX=0;exitY=1;exitDx=0;exitDy=0;entryX=0.5;entryY=0;entryDx=0;entryDy=0;" parent="1" source="cEuxnRAqp1WZ91AmgwLH-106" target="cEuxnRAqp1WZ91AmgwLH-32" edge="1">
          <mxGeometry relative="1" as="geometry">
            <Array as="points">
              <mxPoint x="-247" y="190" />
            </Array>
          </mxGeometry>
        </mxCell>
        <mxCell id="PrAY7Zvrhfou519XJotz-9" style="edgeStyle=orthogonalEdgeStyle;rounded=0;orthogonalLoop=1;jettySize=auto;html=1;exitX=0;exitY=1;exitDx=0;exitDy=0;entryX=0.5;entryY=0;entryDx=0;entryDy=0;" parent="1" source="cEuxnRAqp1WZ91AmgwLH-106" target="cEuxnRAqp1WZ91AmgwLH-16" edge="1">
          <mxGeometry relative="1" as="geometry">
            <Array as="points">
              <mxPoint x="140" y="190" />
            </Array>
          </mxGeometry>
        </mxCell>
        <mxCell id="focETTUK9HXFLKn-f_tf-8" style="edgeStyle=orthogonalEdgeStyle;rounded=0;orthogonalLoop=1;jettySize=auto;html=1;exitX=1;exitY=1;exitDx=0;exitDy=0;entryX=0.5;entryY=1;entryDx=0;entryDy=0;" parent="1" source="cEuxnRAqp1WZ91AmgwLH-106" target="focETTUK9HXFLKn-f_tf-4" edge="1">
          <mxGeometry relative="1" as="geometry" />
        </mxCell>
        <mxCell id="focETTUK9HXFLKn-f_tf-9" style="edgeStyle=orthogonalEdgeStyle;rounded=0;orthogonalLoop=1;jettySize=auto;html=1;exitX=0.75;exitY=1;exitDx=0;exitDy=0;entryX=0;entryY=0;entryDx=0;entryDy=0;" parent="1" source="cEuxnRAqp1WZ91AmgwLH-106" target="cEuxnRAqp1WZ91AmgwLH-23" edge="1">
          <mxGeometry relative="1" as="geometry" />
        </mxCell>
        <mxCell id="cEuxnRAqp1WZ91AmgwLH-106" value="Vidéki" style="whiteSpace=wrap;html=1;align=center;" parent="1" vertex="1">
          <mxGeometry x="180" y="150" width="100" height="40" as="geometry" />
        </mxCell>
        <mxCell id="cEuxnRAqp1WZ91AmgwLH-122" style="edgeStyle=orthogonalEdgeStyle;rounded=0;orthogonalLoop=1;jettySize=auto;html=1;exitX=0.5;exitY=1;exitDx=0;exitDy=0;" parent="1" source="cEuxnRAqp1WZ91AmgwLH-34" target="cEuxnRAqp1WZ91AmgwLH-34" edge="1">
          <mxGeometry relative="1" as="geometry" />
        </mxCell>
        <mxCell id="cEuxnRAqp1WZ91AmgwLH-130" style="edgeStyle=orthogonalEdgeStyle;rounded=0;orthogonalLoop=1;jettySize=auto;html=1;exitX=0.5;exitY=1;exitDx=0;exitDy=0;entryX=0.61;entryY=-0.093;entryDx=0;entryDy=0;entryPerimeter=0;endArrow=none;endFill=0;" parent="1" source="cEuxnRAqp1WZ91AmgwLH-2" target="cEuxnRAqp1WZ91AmgwLH-106" edge="1">
          <mxGeometry relative="1" as="geometry" />
        </mxCell>
        <mxCell id="PrAY7Zvrhfou519XJotz-14" value="Anna telefonszám&lt;br&gt;(bogyó után nagyobb esély)&lt;br&gt;(opcionális)" style="shape=note;size=20;whiteSpace=wrap;html=1;" parent="1" vertex="1">
          <mxGeometry x="414" y="450" width="100" height="100" as="geometry" />
        </mxCell>
        <mxCell id="PrAY7Zvrhfou519XJotz-15" value="Bogyó beszedése" style="shape=note;size=20;whiteSpace=wrap;html=1;" parent="1" vertex="1">
          <mxGeometry x="90" y="340" width="100" height="100" as="geometry" />
        </mxCell>
        <mxCell id="PrAY7Zvrhfou519XJotz-25" style="edgeStyle=orthogonalEdgeStyle;rounded=0;orthogonalLoop=1;jettySize=auto;html=1;exitX=0.5;exitY=1;exitDx=0;exitDy=0;entryX=0.5;entryY=0;entryDx=0;entryDy=0;" parent="1" source="PrAY7Zvrhfou519XJotz-16" target="cEuxnRAqp1WZ91AmgwLH-20" edge="1">
          <mxGeometry relative="1" as="geometry">
            <Array as="points">
              <mxPoint x="914" y="450" />
            </Array>
          </mxGeometry>
        </mxCell>
        <mxCell id="PrAY7Zvrhfou519XJotz-36" style="edgeStyle=orthogonalEdgeStyle;rounded=0;orthogonalLoop=1;jettySize=auto;html=1;exitX=0;exitY=1;exitDx=0;exitDy=0;entryX=1;entryY=0.5;entryDx=0;entryDy=0;" parent="1" source="PrAY7Zvrhfou519XJotz-16" target="PrAY7Zvrhfou519XJotz-35" edge="1">
          <mxGeometry relative="1" as="geometry" />
        </mxCell>
        <mxCell id="PrAY7Zvrhfou519XJotz-16" value="Folyosó" style="shape=rhombus;perimeter=rhombusPerimeter;whiteSpace=wrap;html=1;align=center;" parent="1" vertex="1">
          <mxGeometry x="764" y="390" width="120" height="60" as="geometry" />
        </mxCell>
        <mxCell id="PrAY7Zvrhfou519XJotz-23" style="edgeStyle=orthogonalEdgeStyle;rounded=0;orthogonalLoop=1;jettySize=auto;html=1;exitX=0.5;exitY=1;exitDx=0;exitDy=0;entryX=0.336;entryY=-0.044;entryDx=0;entryDy=0;entryPerimeter=0;" parent="1" source="PrAY7Zvrhfou519XJotz-16" target="cEuxnRAqp1WZ91AmgwLH-18" edge="1">
          <mxGeometry relative="1" as="geometry">
            <Array as="points">
              <mxPoint x="558" y="450" />
            </Array>
          </mxGeometry>
        </mxCell>
        <mxCell id="PrAY7Zvrhfou519XJotz-24" style="edgeStyle=orthogonalEdgeStyle;rounded=0;orthogonalLoop=1;jettySize=auto;html=1;exitX=0.5;exitY=1;exitDx=0;exitDy=0;entryX=0.419;entryY=-0.015;entryDx=0;entryDy=0;entryPerimeter=0;" parent="1" source="PrAY7Zvrhfou519XJotz-16" target="cEuxnRAqp1WZ91AmgwLH-22" edge="1">
          <mxGeometry relative="1" as="geometry">
            <Array as="points">
              <mxPoint x="726" y="450" />
            </Array>
          </mxGeometry>
        </mxCell>
        <mxCell id="PrAY7Zvrhfou519XJotz-33" style="edgeStyle=orthogonalEdgeStyle;rounded=0;orthogonalLoop=1;jettySize=auto;html=1;exitX=0.5;exitY=1;exitDx=0;exitDy=0;entryX=0;entryY=0.25;entryDx=0;entryDy=0;" parent="1" source="PrAY7Zvrhfou519XJotz-31" target="cEuxnRAqp1WZ91AmgwLH-82" edge="1">
          <mxGeometry relative="1" as="geometry" />
        </mxCell>
        <mxCell id="PrAY7Zvrhfou519XJotz-31" value="Kiszöktet" style="ellipse;whiteSpace=wrap;html=1;align=center;" parent="1" vertex="1">
          <mxGeometry x="524" y="570" width="100" height="40" as="geometry" />
        </mxCell>
        <mxCell id="PrAY7Zvrhfou519XJotz-42" style="edgeStyle=orthogonalEdgeStyle;rounded=0;orthogonalLoop=1;jettySize=auto;html=1;exitX=0;exitY=0.5;exitDx=0;exitDy=0;entryX=1;entryY=0.5;entryDx=0;entryDy=0;" parent="1" source="PrAY7Zvrhfou519XJotz-34" target="cEuxnRAqp1WZ91AmgwLH-82" edge="1">
          <mxGeometry relative="1" as="geometry">
            <Array as="points">
              <mxPoint x="1240" y="790" />
            </Array>
          </mxGeometry>
        </mxCell>
        <mxCell id="PrAY7Zvrhfou519XJotz-34" value="Tanár hazaküld" style="ellipse;whiteSpace=wrap;html=1;align=center;" parent="1" vertex="1">
          <mxGeometry x="1240" y="700" width="100" height="40" as="geometry" />
        </mxCell>
        <mxCell id="PrAY7Zvrhfou519XJotz-37" style="edgeStyle=orthogonalEdgeStyle;rounded=0;orthogonalLoop=1;jettySize=auto;html=1;exitX=0.5;exitY=1;exitDx=0;exitDy=0;entryX=0;entryY=0.25;entryDx=0;entryDy=0;" parent="1" source="PrAY7Zvrhfou519XJotz-35" target="cEuxnRAqp1WZ91AmgwLH-82" edge="1">
          <mxGeometry relative="1" as="geometry">
            <Array as="points">
              <mxPoint x="364" y="780" />
            </Array>
          </mxGeometry>
        </mxCell>
        <mxCell id="PrAY7Zvrhfou519XJotz-35" value="Orvosi igazolás" style="ellipse;whiteSpace=wrap;html=1;align=center;" parent="1" vertex="1">
          <mxGeometry x="314" y="350" width="100" height="40" as="geometry" />
        </mxCell>
        <mxCell id="AoPo_hXK6V2bCedRfVOi-2" style="edgeStyle=orthogonalEdgeStyle;rounded=0;orthogonalLoop=1;jettySize=auto;html=1;exitX=1;exitY=0.5;exitDx=0;exitDy=0;entryX=0.25;entryY=0;entryDx=0;entryDy=0;endArrow=none;endFill=0;" parent="1" source="AoPo_hXK6V2bCedRfVOi-1" target="cEuxnRAqp1WZ91AmgwLH-30" edge="1">
          <mxGeometry relative="1" as="geometry" />
        </mxCell>
        <mxCell id="AoPo_hXK6V2bCedRfVOi-1" value="HITEL TÖRLESZTÉSE" style="ellipse;whiteSpace=wrap;html=1;aspect=fixed;" parent="1" vertex="1">
          <mxGeometry x="-320" y="-270" width="100" height="100" as="geometry" />
        </mxCell>
        <mxCell id="AoPo_hXK6V2bCedRfVOi-6" style="edgeStyle=orthogonalEdgeStyle;rounded=0;orthogonalLoop=1;jettySize=auto;html=1;exitX=1;exitY=0.5;exitDx=0;exitDy=0;entryX=0;entryY=0.5;entryDx=0;entryDy=0;" parent="1" source="AoPo_hXK6V2bCedRfVOi-3" target="AoPo_hXK6V2bCedRfVOi-1" edge="1">
          <mxGeometry relative="1" as="geometry" />
        </mxCell>
        <mxCell id="AoPo_hXK6V2bCedRfVOi-3" value="VEREKEDÉS" style="shape=rhombus;perimeter=rhombusPerimeter;whiteSpace=wrap;html=1;align=center;" parent="1" vertex="1">
          <mxGeometry x="-533" y="-290" width="120" height="60" as="geometry" />
        </mxCell>
        <mxCell id="AoPo_hXK6V2bCedRfVOi-16" style="edgeStyle=orthogonalEdgeStyle;rounded=0;orthogonalLoop=1;jettySize=auto;html=1;exitX=0.5;exitY=1;exitDx=0;exitDy=0;entryX=0;entryY=0.5;entryDx=0;entryDy=0;" parent="1" source="AoPo_hXK6V2bCedRfVOi-4" target="AoPo_hXK6V2bCedRfVOi-1" edge="1">
          <mxGeometry relative="1" as="geometry">
            <Array as="points">
              <mxPoint x="-320" y="-280" />
              <mxPoint x="-320" y="-280" />
            </Array>
          </mxGeometry>
        </mxCell>
        <mxCell id="AoPo_hXK6V2bCedRfVOi-4" value="PÉNZ" style="shape=rhombus;perimeter=rhombusPerimeter;whiteSpace=wrap;html=1;align=center;" parent="1" vertex="1">
          <mxGeometry x="-380" y="-380" width="120" height="60" as="geometry" />
        </mxCell>
        <mxCell id="AoPo_hXK6V2bCedRfVOi-10" style="edgeStyle=orthogonalEdgeStyle;rounded=0;orthogonalLoop=1;jettySize=auto;html=1;exitX=0;exitY=0;exitDx=80;exitDy=45;exitPerimeter=0;entryX=0;entryY=0.5;entryDx=0;entryDy=0;" parent="1" source="AoPo_hXK6V2bCedRfVOi-7" target="AoPo_hXK6V2bCedRfVOi-8" edge="1">
          <mxGeometry relative="1" as="geometry" />
        </mxCell>
        <mxCell id="AoPo_hXK6V2bCedRfVOi-7" value="Multiméter ellopása" style="shape=note;size=20;whiteSpace=wrap;html=1;" parent="1" vertex="1">
          <mxGeometry x="1030" y="600" width="80" height="70" as="geometry" />
        </mxCell>
        <mxCell id="AoPo_hXK6V2bCedRfVOi-8" value="pénz+" style="ellipse;whiteSpace=wrap;html=1;align=center;" parent="1" vertex="1">
          <mxGeometry x="1134" y="615" width="100" height="40" as="geometry" />
        </mxCell>
        <mxCell id="AoPo_hXK6V2bCedRfVOi-11" value="Utcazenésztől lopni" style="shape=note;size=20;whiteSpace=wrap;html=1;" parent="1" vertex="1">
          <mxGeometry x="-167" y="330" width="100" height="100" as="geometry" />
        </mxCell>
        <mxCell id="AoPo_hXK6V2bCedRfVOi-13" value="pénz+" style="ellipse;whiteSpace=wrap;html=1;align=center;" parent="1" vertex="1">
          <mxGeometry x="-167" y="460" width="100" height="40" as="geometry" />
        </mxCell>
        <mxCell id="AoPo_hXK6V2bCedRfVOi-15" style="edgeStyle=orthogonalEdgeStyle;rounded=0;orthogonalLoop=1;jettySize=auto;html=1;exitX=1;exitY=0.5;exitDx=0;exitDy=0;entryX=0;entryY=0.5;entryDx=0;entryDy=0;" parent="1" source="AoPo_hXK6V2bCedRfVOi-14" target="AoPo_hXK6V2bCedRfVOi-1" edge="1">
          <mxGeometry relative="1" as="geometry" />
        </mxCell>
        <mxCell id="AoPo_hXK6V2bCedRfVOi-14" value="EGYIK SE = FAIL" style="shape=rhombus;perimeter=rhombusPerimeter;whiteSpace=wrap;html=1;align=center;" parent="1" vertex="1">
          <mxGeometry x="-520" y="-180" width="130" height="70" as="geometry" />
        </mxCell>
        <mxCell id="AoPo_hXK6V2bCedRfVOi-18" value="pénz" style="ellipse;whiteSpace=wrap;html=1;align=center;" parent="1" vertex="1">
          <mxGeometry x="-800" y="270" width="100" height="40" as="geometry" />
        </mxCell>
        <mxCell id="focETTUK9HXFLKn-f_tf-1" value="random fegyver" style="shape=note;size=20;whiteSpace=wrap;html=1;" parent="1" vertex="1">
          <mxGeometry x="-197" y="90" width="97" height="80" as="geometry" />
        </mxCell>
        <mxCell id="focETTUK9HXFLKn-f_tf-3" style="edgeStyle=orthogonalEdgeStyle;rounded=0;orthogonalLoop=1;jettySize=auto;html=1;exitX=1;exitY=0.5;exitDx=0;exitDy=0;entryX=0;entryY=0.5;entryDx=0;entryDy=0;" parent="1" source="focETTUK9HXFLKn-f_tf-2" target="AoPo_hXK6V2bCedRfVOi-3" edge="1">
          <mxGeometry relative="1" as="geometry" />
        </mxCell>
        <mxCell id="focETTUK9HXFLKn-f_tf-2" value="fegyver" style="ellipse;whiteSpace=wrap;html=1;align=center;" parent="1" vertex="1">
          <mxGeometry x="-740" y="-280" width="100" height="40" as="geometry" />
        </mxCell>
        <mxCell id="focETTUK9HXFLKn-f_tf-7" style="edgeStyle=orthogonalEdgeStyle;rounded=0;orthogonalLoop=1;jettySize=auto;html=1;exitX=0.5;exitY=1;exitDx=0;exitDy=0;entryX=1;entryY=0.5;entryDx=0;entryDy=0;" parent="1" source="focETTUK9HXFLKn-f_tf-4" target="cEuxnRAqp1WZ91AmgwLH-6" edge="1">
          <mxGeometry relative="1" as="geometry" />
        </mxCell>
        <mxCell id="focETTUK9HXFLKn-f_tf-4" value="Petz Aladár kórház" style="whiteSpace=wrap;html=1;align=center;" parent="1" vertex="1">
          <mxGeometry x="864" y="-230" width="100" height="40" as="geometry" />
        </mxCell>
      </root>
    </mxGraphModel>
  </diagram>
</mxfile>
